<svg height="512" viewBox="0 0 48 48" width="512" xmlns="http://www.w3.org/2000/svg"><g id="Layer_2" data-name="Layer 2"><path d="m43.20879 39.41758c-9.401 0-11.96008-2.87648-13.828-4.977-.27841-.31346-.54005-.60619-.80069-.86684-1.44861-1.4483-4.49836-1.96891-7.86577-1.89351v-15.76814a.70593.70593 0 0 0 -.01623-.0804 4.844 4.844 0 0 0 1.28243-1.22135 5.02567 5.02567 0 0 0 4.04149 2.06 4.78782 4.78782 0 0 0 4.64719-3.60412c.25193-1.00002-.75656-12.06622-12.73514-12.06622-11.51852 0-13.10372 10.59374-12.7356 12.06621a4.78753 4.78753 0 0 0 4.64768 3.60412 5.02567 5.02567 0 0 0 4.04149-2.06 4.844 4.844 0 0 0 1.28243 1.22135.7059.7059 0 0 0 -.01622.0804v16.369c-.13354.02512-.2691.048-.40134.07442-1.93213.38751-2.19031-.32285-2.7037-1.73665-.51093-1.4069-1.20993-3.33311-4.22463-3.33311a6.688 6.688 0 0 0 -6.80147 4.61807.74617.74617 0 0 0 -.02271.1841v12.13187a2.783 2.783 0 0 0 2.78022 2.78022h39.42857a3.79121 3.79121 0 0 0 0-7.58242zm-14.03438-26.63028a3.2741 3.2741 0 0 1 -3.15241 2.36655 3.45 3.45 0 0 1 -3.28621-2.39833c-.00765-1.23239-.14791-7.037-2.04111-10.00246 7.91259 1.43917 8.444 9.0198 8.47973 10.03424zm-19.32826 2.36655a3.27174 3.27174 0 0 1 -3.15193-2.36655c.03529-1.01352.56621-8.595 8.47925-10.03417-1.8932 2.96552-2.03346 8.77-2.04111 10.00239a3.45 3.45 0 0 1 -3.28621 2.39833zm8.08792-12.63737c2.4549 0 3.26794 6.84294 3.28522 10.26046a3.45877 3.45877 0 0 1 -6.57044 0c.01727-3.41752.83031-10.26046 3.28522-10.26046zm-1.26374 13.97817a4.644 4.644 0 0 0 2.52747 0v15.25987c-.8416.06022-1.68938.15056-2.52747.27187zm26.53846 28.98887h-39.42857a1.26491 1.26491 0 0 1 -1.26374-1.26374v-12.02425c.16291-.50945 1.26522-3.39333 5.3077-3.39333 1.95188 0 2.3073.9789 2.799 2.334.5129 1.41282 1.21684 3.3489 4.42654 2.70617 5.53625-1.10774 10.89232-.76169 12.45817.80366.2409.24139.48179.51241.73948.80267 1.944 2.18439 4.88019 5.48541 14.96145 5.48541a2.27473 2.27473 0 1 1 0 4.54945z"/><path d="m39.16484 13.63736a4.8022 4.8022 0 1 0 -4.8022-4.8022 4.80765 4.80765 0 0 0 4.8022 4.8022zm0-8.08791a3.28572 3.28572 0 1 1 -3.28572 3.28571 3.28952 3.28952 0 0 1 3.28572-3.28571z"/><path d="m9.84615 42.45055h-3.033a1.26491 1.26491 0 0 1 -1.26374-1.26374v-3.033a.75824.75824 0 1 0 -1.51648 0v3.033a2.783 2.783 0 0 0 2.78026 2.78019h3.033a.75824.75824 0 1 0 0-1.51648z"/></g></svg>